<?xml version="1.0" encoding="UTF-8"?>
<svg width="21px" height="21px" viewBox="0 0 21 21" version="1.1" xmlns="http://www.w3.org/2000/svg" xmlns:xlink="http://www.w3.org/1999/xlink">
    <!-- Generator: Sketch 41.2 (35397) - http://www.bohemiancoding.com/sketch -->
    <title>Facebook</title>
    <desc>Created with Sketch.</desc>
    <defs></defs>
    <g id="Page-1" stroke="none" stroke-width="1" fill="none" fill-rule="evenodd">
        <g id="Group-7">
            <path d="M20.4887,16.4212 C20.4887,18.6702 18.6637,20.4922 16.4117,20.4922 L4.7187,20.4922 C2.4677,20.4922 0.6417,18.6702 0.6417,16.4212 L0.6417,4.7412 C0.6417,2.4932 2.4677,0.6692 4.7187,0.6692 L16.4117,0.6692 C18.6637,0.6692 20.4887,2.4932 20.4887,4.7412 L20.4887,16.4212 Z" id="Fill-628" fill="#44B6A7"></path>
            <path d="M15.9018,5.9847 L17.7328,5.9847 L17.7328,3.1107 L15.4588,3.1107 L14.9888,3.1107 C14.9888,3.1107 13.2638,3.0677 12.1638,4.4957 C12.1638,4.4957 11.4148,5.2007 11.4028,7.2657 L11.4028,7.2657 L11.4028,9.4227 L8.6908,9.4227 L8.6908,12.4737 L11.4028,12.4737 L11.4028,20.3587 L14.5308,20.3587 L14.5308,12.4737 L17.2218,12.4737 L17.5968,9.4227 L14.5308,9.4227 L14.5308,7.2657 L14.5298,7.2657 C14.5378,7.0257 14.6448,5.9637 15.9018,5.9847" id="Fill-629" fill="#FFFFFF"></path>
        </g>
    </g>
</svg>