<?xml version="1.0" encoding="UTF-8"?>
<svg width="17px" height="18px" viewBox="0 0 17 18" version="1.1" xmlns="http://www.w3.org/2000/svg" xmlns:xlink="http://www.w3.org/1999/xlink">
    <!-- Generator: Sketch 41.2 (35397) - http://www.bohemiancoding.com/sketch -->
    <title>Kunden</title>
    <desc>Created with Sketch.</desc>
    <defs></defs>
    <g id="Page-1" stroke="none" stroke-width="1" fill="none" fill-rule="evenodd">
        <g id="Group-5" transform="translate(-1.000000, 0.000000)" fill="#FFFFFF">
            <path d="M16.2353,13.76 C14.3763,12.383 12.5933,11.481 12.1903,11.283 C12.1363,11.258 12.1043,11.204 12.1043,11.147 L12.1043,9.507 C12.3563,9.079 12.5173,8.63 12.5783,8.22 C12.7623,8.205 12.9993,7.95 13.2583,7.037 C13.6103,5.789 13.2363,5.606 12.9203,5.635 C12.9813,5.462 13.0283,5.293 13.0573,5.12 C13.5963,1.889 12.0033,1.777 12.0033,1.777 C12.0033,1.777 11.7413,1.27 11.0433,0.885 C10.5803,0.609 9.9293,0.397 9.0773,0.468 C8.8003,0.483 8.5373,0.537 8.2933,0.619 C7.9803,0.728 7.6933,0.882 7.4303,1.062 C7.1103,1.263 6.8083,1.511 6.5423,1.795 C6.1213,2.227 5.7443,2.783 5.5823,3.478 C5.4453,3.995 5.4783,4.538 5.5893,5.12 C5.6223,5.29 5.6653,5.462 5.7263,5.635 C5.4093,5.606 5.0323,5.789 5.3883,7.037 C5.6473,7.95 5.8873,8.205 6.0683,8.22 C6.1323,8.633 6.2943,9.09 6.5423,9.522 L6.5423,11.147 C6.5423,11.204 6.5093,11.258 6.4563,11.283 C6.0533,11.481 4.2703,12.38 2.4113,13.76 C1.4873,14.447 0.9483,15.54 0.9483,16.691 L0.9483,17.133 C0.9483,17.654 1.3723,18.078 1.8933,18.078 L16.7453,18.078 C17.2673,18.078 17.6913,17.654 17.6913,17.133 L17.6913,16.691 C17.7023,15.536 17.1633,14.447 16.2353,13.76" id="Fill-56"></path>
        </g>
    </g>
</svg>