<?xml version="1.0" encoding="UTF-8"?>
<svg width="21px" height="21px" viewBox="0 0 21 21" version="1.1" xmlns="http://www.w3.org/2000/svg" xmlns:xlink="http://www.w3.org/1999/xlink">
    <!-- Generator: Sketch 41.2 (35397) - http://www.bohemiancoding.com/sketch -->
    <title>Linkedin</title>
    <desc>Created with Sketch.</desc>
    <defs></defs>
    <g id="Page-1" stroke="none" stroke-width="1" fill="none" fill-rule="evenodd">
        <g id="Group-8">
            <path d="M20.3818,16.2874 C20.3818,18.5364 18.5578,20.3584 16.3058,20.3584 L4.6128,20.3584 C2.3608,20.3584 0.5358,18.5364 0.5358,16.2874 L0.5358,4.6074 C0.5358,2.3594 2.3608,0.5354 4.6128,0.5354 L16.3058,0.5354 C18.5578,0.5354 20.3818,2.3594 20.3818,4.6074 L20.3818,16.2874 Z" id="Fill-623" fill="#44B6A7"></path>
            <path d="M3.51,17.611 L6.489,17.611 L6.489,8.04 L3.51,8.04 L3.51,17.611 Z M4.999,3.283 C5.951,3.283 6.725,4.056 6.725,5.008 C6.725,5.96 5.951,6.732 4.999,6.732 C4.045,6.732 3.273,5.96 3.273,5.008 C3.273,4.056 4.045,3.283 4.999,3.283 L4.999,3.283 Z" id="Fill-624" fill="#FFFFFF"></path>
            <path d="M8.3564,8.0403 L11.2134,8.0403 L11.2134,9.3503 L11.2544,9.3503 C11.6514,8.5963 12.6234,7.8043 14.0724,7.8043 C17.0884,7.8043 17.6454,9.7853 17.6454,12.3613 L17.6454,17.6113 L14.6684,17.6113 L14.6684,12.9573 C14.6684,11.8473 14.6484,10.4183 13.1194,10.4183 C11.5704,10.4183 11.3334,11.6293 11.3334,12.8773 L11.3334,17.6113 L8.3564,17.6113 L8.3564,8.0403 Z" id="Fill-625" fill="#FFFFFF"></path>
        </g>
    </g>
</svg>