<?xml version="1.0" encoding="UTF-8"?>
<svg width="21px" height="20px" viewBox="0 0 21 20" version="1.1" xmlns="http://www.w3.org/2000/svg" xmlns:xlink="http://www.w3.org/1999/xlink">
    <!-- Generator: Sketch 41.2 (35397) - http://www.bohemiancoding.com/sketch -->
    <title>Fill 58</title>
    <desc>Created with Sketch.</desc>
    <defs></defs>
    <g id="Page-1" stroke="none" stroke-width="1" fill="none" fill-rule="evenodd">
        <g id="Group-116" transform="translate(0.000000, -136.470000)" fill="#FFFFFF">
            <g id="Group-2" transform="translate(0.000000, 136.000000)">
                <path d="M19.5204,7.7398 L12.8974,7.7398 L12.8974,1.1168 C12.8974,0.7838 12.6274,0.5138 12.2944,0.5138 L8.6824,0.5138 C8.3504,0.5138 8.0804,0.7838 8.0804,1.1168 L8.0804,7.7398 L1.4574,7.7398 C1.1244,7.7398 0.8554,8.0098 0.8554,8.3418 L0.8554,11.9538 C0.8554,12.2868 1.1244,12.5558 1.4574,12.5558 L8.0804,12.5558 L8.0804,19.1788 C8.0804,19.5108 8.3504,19.7808 8.6824,19.7808 L12.2944,19.7808 C12.6274,19.7808 12.8974,19.5108 12.8974,19.1788 L12.8974,12.5558 L19.5204,12.5558 C19.8534,12.5558 20.1224,12.2868 20.1224,11.9538 L20.1224,8.3418 C20.1224,8.0098 19.8534,7.7398 19.5204,7.7398" id="Fill-58"></path>
            </g>
        </g>
    </g>
</svg>