<?xml version="1.0" encoding="UTF-8"?>
<svg width="21px" height="13px" viewBox="0 0 21 13" version="1.1" xmlns="http://www.w3.org/2000/svg" xmlns:xlink="http://www.w3.org/1999/xlink">
    <!-- Generator: Sketch 41.2 (35397) - http://www.bohemiancoding.com/sketch -->
    <title>Produkte</title>
    <desc>Created with Sketch.</desc>
    <defs></defs>
    <g id="Page-1" stroke="none" stroke-width="1" fill="none" fill-rule="evenodd">
        <g id="Group-44" transform="translate(0.000000, -0.470000)" fill="#FFFFFF">
            <path d="M0.806,13.114 L3.026,13.114 L3.026,0.672 L0.806,0.672 L0.806,13.114 Z M6.39,13.114 L8.61,13.114 L8.61,0.672 L6.39,0.672 L6.39,13.114 Z M9.753,13.114 L11.973,13.114 L11.973,0.672 L9.753,0.672 L9.753,13.114 Z M17.49,13.114 L20.787,13.114 L20.787,0.672 L17.49,0.672 L17.49,13.114 Z M4.169,13.114 L5.246,13.114 L5.246,0.672 L4.169,0.672 L4.169,13.114 Z M13.05,13.114 L14.126,13.114 L14.126,0.672 L13.05,0.672 L13.05,13.114 Z M15.27,13.114 L16.346,13.114 L16.346,0.672 L15.27,0.672 L15.27,13.114 Z" id="Combined-Shape"></path>
        </g>
    </g>
</svg>