<?xml version="1.0" encoding="UTF-8"?>
<svg width="74px" height="74px" viewBox="0 0 74 74" version="1.1" xmlns="http://www.w3.org/2000/svg" xmlns:xlink="http://www.w3.org/1999/xlink">
    <!-- Generator: Sketch 41.2 (35397) - http://www.bohemiancoding.com/sketch -->
    <title>Userpic</title>
    <desc>Created with Sketch.</desc>
    <defs></defs>
    <g id="Page-1" stroke="none" stroke-width="1" fill="none" fill-rule="evenodd">
        <g id="Group-116" transform="translate(-59.000000, -0.470000)">
            <g id="Group" transform="translate(59.000000, 0.000000)"></g>
            <path d="M59.4365,37.4224 C59.4365,57.7194 75.8905,74.1724 96.1865,74.1724 C116.4835,74.1724 132.9375,57.7194 132.9375,37.4224 C132.9375,17.1254 116.4835,0.6714 96.1865,0.6714 C75.8905,0.6714 59.4365,17.1254 59.4365,37.4224" id="Fill-60" fill="#80C5A3"></path>
            <path d="M113.8945,69.1685 L78.2175,69.1685 L78.2175,69.1355 C78.2175,60.0595 85.5745,52.7015 94.6505,52.7015 L97.4285,52.7015 C106.5225,52.7015 113.8945,60.0735 113.8945,69.1685" id="Fill-62" fill="#484847"></path>
            <path d="M104.289,60.8336 L87.823,60.8336 C84.034,60.8336 80.962,57.7616 80.962,53.9726 C80.962,50.1836 84.034,47.1106 87.823,47.1106 L104.289,47.1106 C108.078,47.1106 111.15,50.1836 111.15,53.9726 C111.15,57.7616 108.078,60.8336 104.289,60.8336" id="Fill-64" fill="#969796"></path>
            <path d="M107.4589,52.1207 C107.4589,53.2427 106.7899,54.2587 105.7579,54.6977 L101.5449,56.4897 L96.0309,58.8367 L90.5669,56.5007 L86.3519,54.7007 C85.3199,54.2587 84.6529,53.2457 84.6529,52.1267 L84.6529,52.1207 C84.6529,50.5757 85.9049,49.3217 87.4529,49.3217 L104.6599,49.3217 C106.2079,49.3217 107.4589,50.5757 107.4589,52.1207" id="Fill-66" fill="#4F504F"></path>
            <polygon id="Fill-68" fill="#E9834E" points="101.5449 46.8677 101.5449 56.4897 96.0309 58.8367 90.5669 56.5007 90.5669 46.8677"></polygon>
            <path d="M92.1728,69.1685 L90.5678,69.1685 L90.5678,59.6385 C90.5678,59.1955 90.9268,58.8365 91.3698,58.8365 C91.8138,58.8365 92.1728,59.1955 92.1728,59.6385 L92.1728,69.1685 Z" id="Fill-70" fill="#FFFFFF"></path>
            <path d="M101.5449,69.1685 L99.9399,69.1685 L99.9399,59.6385 C99.9399,59.1955 100.2989,58.8365 100.7429,58.8365 C101.1859,58.8365 101.5449,59.1955 101.5449,59.6385 L101.5449,69.1685 Z" id="Fill-72" fill="#FFFFFF"></path>
            <path d="M82.4579,28.6871 L92.1689,28.6871 L92.1689,35.7131 L82.4579,35.7131 C80.5149,35.7131 78.9389,34.1381 78.9389,32.1951 L78.9389,32.2011 C78.9389,30.2571 80.5149,28.6871 82.4579,28.6871" id="Fill-74" fill="#EA8A56"></path>
            <path d="M109.5175,28.6871 L99.7365,28.6871 L99.7365,35.7131 L109.5175,35.7131 C111.4605,35.7131 113.0365,34.1381 113.0365,32.1951 L113.0365,32.2011 C113.0365,30.2571 111.4605,28.6871 109.5175,28.6871" id="Fill-76" fill="#EA8A56"></path>
            <path d="M109.4643,21.4781 L109.4643,37.0591 C109.4643,42.7951 103.4133,47.4471 95.9513,47.4471 C88.4893,47.4471 82.4383,42.7951 82.4383,37.0591 L82.4383,21.4781 L109.4643,21.4781 Z" id="Fill-78" fill="#EFA16E"></path>
            <path d="M109.4926,35.7134 L109.4926,35.7134 L82.4396,35.7134 C82.4396,32.8774 84.7386,30.5784 87.5746,30.5784 L104.3576,30.5784 C107.1936,30.5784 109.4926,32.8774 109.4926,35.7134" id="Fill-80" fill="#1B151E"></path>
            <path d="M98.6552,31.6597 L93.2502,31.6597 L93.2502,29.0357 C93.2502,27.5437 94.4502,26.3337 95.9432,26.3337 L95.9482,26.3337 C97.4402,26.3337 98.6552,27.5437 98.6552,29.0357 L98.6552,31.6597 Z" id="Fill-82" fill="#E46C53"></path>
            <path d="M95.9526,54.6314 L95.9526,54.6314 C88.4896,54.6314 82.4396,48.5814 82.4396,41.1184 L82.4396,35.7134 L109.4656,35.7134 L109.4656,41.1184 C109.4656,48.5814 103.4156,54.6314 95.9526,54.6314" id="Fill-84" fill="#1B151E"></path>
            <path d="M104.0742,35.7134 C104.0742,36.6674 103.9172,37.5784 103.6252,38.4164 C102.9472,40.3864 101.5412,41.9814 99.7362,42.9104 C98.6092,43.4964 97.3252,43.8214 95.9662,43.8214 C94.5852,43.8214 93.2822,43.4864 92.1422,42.8834 C90.3612,41.9484 88.9772,40.3674 88.3072,38.4164 C88.0152,37.5784 87.8582,36.6674 87.8582,35.7134 L104.0742,35.7134 Z" id="Fill-86" fill="#8F2D36"></path>
            <path d="M104.0742,35.7134 C104.0742,36.1914 103.9172,36.6464 103.6252,37.0654 L88.3072,37.0654 C88.0152,36.6464 87.8582,36.1914 87.8582,35.7134 L104.0742,35.7134 Z" id="Fill-88" fill="#FFFFFF"></path>
            <path d="M99.7363,42.9107 C98.6093,43.4967 97.3253,43.8217 95.9653,43.8217 C94.5853,43.8217 93.2823,43.4867 92.1423,42.8837 C92.7313,41.3647 94.2063,40.2917 95.9333,40.2917 C97.6693,40.2917 99.1533,41.3787 99.7363,42.9107" id="Fill-90" fill="#B93844"></path>
            <polygon id="Fill-92" fill="#1B151E" points="84.6015 20.9664 82.4395 20.9664 82.4395 37.0654 84.6015 37.0654 84.6015 24.3584"></polygon>
            <polygon id="Fill-94" fill="#1B151E" points="109.4658 20.9664 107.3038 20.9664 107.3038 37.0654 109.4658 37.0654 109.4658 24.3584"></polygon>
            <path d="M109.8837,16.4107 L115.3727,16.4107 C115.3727,19.4297 112.9157,21.8987 109.8837,21.8987 L82.4397,21.8987 C82.4397,15.8367 87.3547,10.9217 93.4177,10.9217 L115.3727,10.9217 C115.3727,13.9397 112.9157,16.4107 109.8837,16.4107" id="Fill-96" fill="#1B151E"></path>
            <path d="M90.6147,27.5357 C90.6147,28.4447 89.8777,29.1817 88.9677,29.1817 C88.0587,29.1817 87.3217,28.4447 87.3217,27.5357 C87.3217,26.6257 88.0587,25.8887 88.9677,25.8887 C89.8777,25.8887 90.6147,26.6257 90.6147,27.5357" id="Fill-98" fill="#1D0207"></path>
            <path d="M90.5444,27.1568 C90.5444,27.6118 90.1754,27.9798 89.7214,27.9798 C89.2664,27.9798 88.8984,27.6118 88.8984,27.1568 C88.8984,26.7018 89.2664,26.3338 89.7214,26.3338 C90.1754,26.3338 90.5444,26.7018 90.5444,27.1568" id="Fill-100" fill="#FFFFFF"></path>
            <path d="M104.6108,27.5357 C104.6108,28.4447 103.8738,29.1817 102.9648,29.1817 C102.0548,29.1817 101.3178,28.4447 101.3178,27.5357 C101.3178,26.6257 102.0548,25.8887 102.9648,25.8887 C103.8738,25.8887 104.6108,26.6257 104.6108,27.5357" id="Fill-102" fill="#1D0207"></path>
            <path d="M94.4755,31.6597 C94.4755,32.4687 95.1305,33.1237 95.9385,33.1237 C96.7475,33.1237 97.4025,32.4687 97.4025,31.6597" id="Stroke-104" stroke="#6B6C6A" stroke-width="0.678"></path>
            <path d="M104.5556,27.1568 C104.5556,27.6118 104.1866,27.9798 103.7326,27.9798 C103.2776,27.9798 102.9086,27.6118 102.9086,27.1568 C102.9086,26.7018 103.2776,26.3338 103.7326,26.3338 C104.1866,26.3338 104.5556,26.7018 104.5556,27.1568" id="Fill-106" fill="#FFFFFF"></path>
            <path d="M78.2172,69.1685 C78.2172,69.1685 77.9402,69.3445 78.9672,69.8975 C81.7762,71.4105 88.8402,74.4395 96.0562,74.4395 C103.7072,74.4395 110.7922,71.4775 113.4142,69.8935 C114.1682,69.4375 113.7962,69.3515 113.8942,69.1685" id="Fill-108" fill="#484847"></path>
            <path d="M80.5351,33.8951 C80.5351,34.3081 80.8701,34.6431 81.2841,34.6431 C81.6971,34.6431 82.0321,34.3081 82.0321,33.8951 C82.0321,33.4811 81.6971,33.1461 81.2841,33.1461 C80.8701,33.1461 80.5351,33.4811 80.5351,33.8951 Z" id="Stroke-110" stroke="#6B6C6A" stroke-width="0.498"></path>
            <path d="M109.9521,33.8951 C109.9521,34.3081 110.2871,34.6431 110.7011,34.6431 C111.1141,34.6431 111.4491,34.3081 111.4491,33.8951 C111.4491,33.4811 111.1141,33.1461 110.7011,33.1461 C110.2871,33.1461 109.9521,33.4811 109.9521,33.8951 Z" id="Stroke-112" stroke="#6B6C6A" stroke-width="0.498"></path>
        </g>
    </g>
</svg>