<?xml version="1.0" encoding="UTF-8"?>
<svg width="19px" height="21px" viewBox="0 0 19 21" version="1.1" xmlns="http://www.w3.org/2000/svg" xmlns:xlink="http://www.w3.org/1999/xlink">
    <!-- Generator: Sketch 41.2 (35397) - http://www.bohemiancoding.com/sketch -->
    <title>Rechnungen</title>
    <desc>Created with Sketch.</desc>
    <defs></defs>
    <g id="Page-1" stroke="none" stroke-width="1" fill="none" fill-rule="evenodd">
        <g id="Group-55" transform="translate(0.000000, -0.470000)" fill="#FFFFFF">
            <path d="M16.9946,19.3404 L14.9376,20.0264 L12.2126,19.1174 L9.4886,20.0264 L6.7646,19.1174 L4.0396,20.0264 L1.9826,19.3404 L1.9826,2.8144 L4.0396,3.4994 L6.7646,2.5914 L9.4886,3.4994 L12.2126,2.5914 L14.9376,3.4994 L16.9946,2.8144 L16.9946,19.3404 Z M14.9376,2.0924 L12.2126,1.1844 L9.4886,2.0924 L6.7646,1.1844 L4.0396,2.0924 L0.6476,0.9614 L0.6476,20.3034 L4.0396,21.4344 L6.7646,20.5264 L9.4886,21.4334 L12.2126,20.5264 L14.9376,21.4334 L18.3296,20.3034 L18.3296,0.9614 L14.9376,2.0924 Z" id="Fill-53"></path>
            <text id="€" font-family="Helvetica-Bold, Helvetica" font-size="12.0457" font-weight="bold">
                <tspan x="4.0469" y="14.739">€</tspan>
            </text>
        </g>
    </g>
</svg>