<?xml version="1.0" encoding="UTF-8"?>
<svg width="21px" height="21px" viewBox="0 0 21 21" version="1.1" xmlns="http://www.w3.org/2000/svg" xmlns:xlink="http://www.w3.org/1999/xlink">
    <!-- Generator: Sketch 41.2 (35397) - http://www.bohemiancoding.com/sketch -->
    <title>Twitter</title>
    <desc>Created with Sketch.</desc>
    <defs></defs>
    <g id="Page-1" stroke="none" stroke-width="1" fill="none" fill-rule="evenodd">
        <g id="Group-6">
            <path d="M20.0102,16.2874 C20.0102,18.5354 18.1842,20.3584 15.9322,20.3584 L4.2402,20.3584 C1.9892,20.3584 0.1632,18.5354 0.1632,16.2874 L0.1632,4.6074 C0.1632,2.3584 1.9892,0.5354 4.2402,0.5354 L15.9322,0.5354 C18.1842,0.5354 20.0102,2.3584 20.0102,4.6074 L20.0102,16.2874 Z" id="Fill-626" fill="#44B6A7"></path>
            <path d="M7.7231,16.1907 C12.9391,16.1907 15.7911,11.8747 15.7911,8.1307 C15.7911,8.0087 15.7891,7.8867 15.7831,7.7657 C16.3381,7.3667 16.8181,6.8667 17.1971,6.2987 C16.6891,6.5237 16.1421,6.6757 15.5691,6.7447 C16.1551,6.3937 16.6031,5.8387 16.8171,5.1777 C16.2691,5.5027 15.6611,5.7387 15.0151,5.8667 C14.4971,5.3147 13.7621,4.9707 12.9461,4.9707 C11.3791,4.9707 10.1111,6.2397 10.1111,7.8027 C10.1111,8.0247 10.1361,8.2407 10.1831,8.4497 C7.8271,8.3297 5.7361,7.2037 4.3381,5.4897 C4.0951,5.9077 3.9541,6.3937 3.9541,6.9127 C3.9541,7.8947 4.4541,8.7617 5.2171,9.2707 C4.7511,9.2557 4.3131,9.1287 3.9311,8.9167 L3.9311,8.9527 C3.9311,10.3247 4.9091,11.4697 6.2051,11.7287 C5.9691,11.7937 5.7171,11.8297 5.4591,11.8297 C5.2761,11.8297 5.0981,11.8097 4.9261,11.7767 C5.2871,12.9037 6.3341,13.7217 7.5741,13.7457 C6.6041,14.5047 5.3811,14.9577 4.0521,14.9577 C3.8241,14.9577 3.5981,14.9447 3.3761,14.9187 C4.6311,15.7217 6.1211,16.1907 7.7231,16.1907" id="Fill-627" fill="#FFFFFF"></path>
        </g>
    </g>
</svg>